<svg id="Layer_1" data-name="Layer 1" xmlns="http://www.w3.org/2000/svg" viewBox="0 0 95 95"><defs><style>.cls-1{fill:#fff;}</style></defs><path class="cls-1" d="M87.61,54.94a53.44,53.44,0,0,0-6.72-2.86,33.09,33.09,0,0,0,5.56-18.33C86.45,18,77.71,1,58.51,1A26.91,26.91,0,0,0,47,3.46a29.22,29.22,0,0,0-8.64-1.24c-13.75,0-22.63,8-22.63,20.41a25.38,25.38,0,0,0,.54,5.22,8.78,8.78,0,0,0-.77,4.64,8,8,0,0,0,2.45,5.44,3.57,3.57,0,0,0,2,.86,24.47,24.47,0,0,0,8,12.34A11.16,11.16,0,0,1,25,56.66c-2.8.48-4.53.92-4.58.93-1.21.31-2.47.68-4,1.16a59.83,59.83,0,0,0-8.79,3.6A14,14,0,0,0,0,74.84v3.79A9.44,9.44,0,0,0,5,87c6,3.18,16.67,7,33.29,7s27.28-3.78,33.29-7a9.35,9.35,0,0,0,3.6-3.37,55.9,55.9,0,0,0,15-5A9.09,9.09,0,0,0,95,70.54V66.93A13.45,13.45,0,0,0,87.61,54.94Zm-29.1-51c17.22,0,25.06,15.48,25.06,29.86A30.09,30.09,0,0,1,78,51.13c-.93-.28-1.77-.53-2.57-.73A44.91,44.91,0,0,0,71,49.33a10.61,10.61,0,0,1-2.63-4.91A22.46,22.46,0,0,0,75,33.85a3.34,3.34,0,0,0,1.76-.79,7.38,7.38,0,0,0,2.25-5c.29-3.23-1.07-5.92-3.3-6.53a4.18,4.18,0,0,0-1.9-.09,10.45,10.45,0,0,0-4-5.05c-2.66-1.73-6-1.91-9.88-.62A18.28,18.28,0,0,0,50.87,5.06,24.49,24.49,0,0,1,58.51,3.89Zm1.6,54.85c-1.5-.48-2.75-.85-3.91-1.14a43.57,43.57,0,0,0-4.78-1.11,11.24,11.24,0,0,1-2.78-5.37,21.09,21.09,0,0,0,4-4.1,14.42,14.42,0,0,0,5.78,1.28,14.83,14.83,0,0,0,7.48-2.09,13.35,13.35,0,0,0,2.87,4.91c-.25,2.19-2.09,5.67-4.31,9.18C63,59.75,61.6,59.23,60.11,58.74Zm1-26.25a8.75,8.75,0,0,0-.7-4.5A25.3,25.3,0,0,0,61,22.63a24.25,24.25,0,0,0-.35-4.06c2.9-1,5.32-1,7.2,0a8,8,0,0,1,3.6,4.93,1.47,1.47,0,0,0,.57,1,1.43,1.43,0,0,0,1.28.21,3,3,0,0,0,.43-.19,1.55,1.55,0,0,1,1.23-.21c.62.17,1.37,1.49,1.2,3.51a4.69,4.69,0,0,1-1.22,3c-.15.12-.25.16-.36.14a1.43,1.43,0,0,0-1.23,0,1.5,1.5,0,0,0-.79,1,19.5,19.5,0,0,1-7,11.08,11.83,11.83,0,0,1-11.3,1.55,27.42,27.42,0,0,0,2.45-5.75,3.69,3.69,0,0,0,2-.87A8,8,0,0,0,61.1,32.49ZM38.34,5.09c12.18,0,19.75,6.72,19.75,17.54a22.85,22.85,0,0,1-.21,2.89c-.12,0-.22-.11-.34-.14a4.54,4.54,0,0,0-2.18-.07c-.34-1-.89-2.63-1.82-5.21a1.25,1.25,0,0,0-.08-.12,1.23,1.23,0,0,0-.14-.25,1.34,1.34,0,0,0-.2-.21.81.81,0,0,1-.09-.1l-.23-.14h0a14,14,0,0,0-15.35.14,11.28,11.28,0,0,1-12.2,0c-.06,0-.13-.05-.19-.09a1,1,0,0,0-.17-.1h-.08a1.57,1.57,0,0,0-.3,0,2.26,2.26,0,0,0-.26,0,2.5,2.5,0,0,0-.26.07,1.17,1.17,0,0,0-.26.1,1.59,1.59,0,0,0-.21.15,2.09,2.09,0,0,0-.22.2l-.06.06c0,.06,0,.13-.09.19a1,1,0,0,0-.1.17c-.93,2.58-1.48,4.19-1.82,5.21a4.54,4.54,0,0,0-2.18.07,2.77,2.77,0,0,0-.26.1,22.23,22.23,0,0,1-.2-2.85C18.59,11.81,26.16,5.09,38.34,5.09Zm-16,31.75a1.49,1.49,0,0,0-.84-.93,1.53,1.53,0,0,0-1.29,0,.76.76,0,0,1-.46-.21,5.3,5.3,0,0,1-1.42-3.48c-.22-2.45.74-3.89,1.46-4.08a1.87,1.87,0,0,1,1.49.24,2.39,2.39,0,0,0,.44.2A1.4,1.4,0,0,0,23,28.38a1.44,1.44,0,0,0,.58-1c.1-.46.81-2.51,1.58-4.69a14,14,0,0,0,6.17,1.41,13.4,13.4,0,0,0,7.79-2.37A11.3,11.3,0,0,1,51,21.55c.92,2.57,1.86,5.31,2,5.85a1.46,1.46,0,0,0,.57,1,1.41,1.41,0,0,0,1.28.22,2.41,2.41,0,0,0,.45-.2,1.87,1.87,0,0,1,1.49-.24c.72.19,1.67,1.63,1.46,4.08a5.3,5.3,0,0,1-1.42,3.48.72.72,0,0,1-.58.17,1.47,1.47,0,0,0-1.23,0,1.41,1.41,0,0,0-.78,1,21.84,21.84,0,0,1-7.87,12.43,13.46,13.46,0,0,1-16.13,0A21.84,21.84,0,0,1,22.36,36.84Zm8.16,16a15.89,15.89,0,0,0,15.56,0,13.92,13.92,0,0,0,3.11,5.51c-.74,2.24-5.87,6.47-10.88,9.61-5-3.15-10.17-7.39-10.89-9.62A14,14,0,0,0,30.52,52.85ZM2.88,78.63V74.84A11.18,11.18,0,0,1,9,64.91a56.77,56.77,0,0,1,8.37-3.42c1.43-.46,2.64-.82,3.79-1.11.05,0,1.44-.36,3.72-.77,1.83,4.2,9.21,9.11,12,10.84V91.09c-16-.23-26-4.2-30.51-6.6A6.59,6.59,0,0,1,2.88,78.63Zm70.86,0a6.59,6.59,0,0,1-3.48,5.86c-4.55,2.4-14.5,6.37-30.51,6.6V70.45c2.81-1.75,10.31-6.75,12-11,1.22.25,2.44.53,3.64.89s2.36.65,3.79,1.11a55.83,55.83,0,0,1,8.38,3.43,11.15,11.15,0,0,1,6.14,9.94Zm18.38-8.09a6.21,6.21,0,0,1-3.29,5.52,51.35,51.35,0,0,1-12.4,4.37,9.72,9.72,0,0,0,.19-1.8V74.85a14.19,14.19,0,0,0-.26-2.53,62.57,62.57,0,0,0,7.27-2,1.44,1.44,0,1,0-.95-2.72,59.69,59.69,0,0,1-7.13,1.94,14.19,14.19,0,0,0-6.63-7.18c-.59-.31-1.21-.6-1.83-.89a33.87,33.87,0,0,0,4.32-9.11c1.12.25,2.22.51,3.3.83s2.24.62,3.6,1.06a53.61,53.61,0,0,1,8,3.26,10.6,10.6,0,0,1,5.82,9.43Z"/><path class="cls-1" d="M65.54,75.83A71.91,71.91,0,0,1,54,78.75a1.44,1.44,0,0,0,.24,2.86,1,1,0,0,0,.24,0,75.38,75.38,0,0,0,12.06-3,1.45,1.45,0,0,0,.89-1.84A1.44,1.44,0,0,0,65.54,75.83Z"/></svg>