<svg id="Layer_1" data-name="Layer 1" xmlns="http://www.w3.org/2000/svg" viewBox="0 0 95 95"><defs><style>.cls-1{fill:#fff;}</style></defs><path class="cls-1" d="M58,75c9-10.68,21-27.92,21-43.51a31.52,31.52,0,0,0-63,0C16,47.12,28,64.36,37,75c-6.17,1.83-10.25,5.24-10.25,9.25,0,6,9.11,10.71,20.74,10.71s20.75-4.7,20.75-10.71C68.25,80.28,64.17,76.86,58,75ZM47.5,2.88A28.68,28.68,0,0,1,76.14,31.52C76.14,52.15,52.67,77,47.5,82.26,42.33,77,18.86,52.16,18.86,31.52A28.68,28.68,0,0,1,47.5,2.88Zm0,89.24C37,92.12,29.63,88,29.63,84.29c0-2.6,3.65-5.39,9.46-6.83,4,4.58,7,7.51,7.42,7.87a1.39,1.39,0,0,0,1,.4,1.43,1.43,0,0,0,1-.4c.38-.36,3.41-3.3,7.42-7.88,5.81,1.44,9.45,4.24,9.45,6.84C65.37,88,58,92.12,47.5,92.12Z"/><path class="cls-1" d="M48.66,45.78a.17.17,0,0,0,0,.07c.27,9.66,4.89,13.26,7.73,13.26,1.2,0,4.87,0,7.05-17.72a1,1,0,0,1,.18-.48c2-2.8,7.95-12.52,2.2-19.83s-11.49-4.64-16.59-2.32l-1.74.77-1.74-.77c-5.1-2.31-10.88-4.94-16.59,2.32s.23,17,2.2,19.83a1,1,0,0,1,.18.48c2.19,17.72,5.85,17.72,7.05,17.72,2.85,0,7.46-3.6,7.74-13.26v-.07a1.75,1.75,0,0,1,1.2-1.67A1.76,1.76,0,0,1,48.66,45.78Zm-2.52-4.23a4.7,4.7,0,0,0-2.68,4.2c-.23,8-3.64,10.48-4.83,10.48-1-.32-3-5.25-4.22-15.19a4,4,0,0,0-.68-1.78c-1.2-1.7-6.94-10.5-2.3-16.4,2.12-2.69,4.14-3.63,6.22-3.63a14.8,14.8,0,0,1,5.8,1.65,9.86,9.86,0,0,1-1.78.18,1.44,1.44,0,0,0,0,2.88c3.12,0,6-1.31,8.76-2.56,4.93-2.24,8.83-4,13.14,1.48,4.64,5.89-1.1,14.7-2.3,16.4A4,4,0,0,0,60.59,41c-1.21,9.83-3.23,14.88-4.19,15.19-1.22,0-4.63-2.49-4.86-10.48a4.69,4.69,0,0,0-2.69-4.2A3,3,0,0,0,46.14,41.55Z"/></svg>