<svg id="Layer_1" data-name="Layer 1" xmlns="http://www.w3.org/2000/svg" viewBox="0 0 95 95"><defs><style>.cls-1{fill:#fff;}</style></defs><path class="cls-1" d="M42.78,85.26H8.7A4.07,4.07,0,0,1,4.84,81V17.07A4.07,4.07,0,0,1,8.7,12.83H20.44v1.4a4.28,4.28,0,0,0,4.28,4.28H47.45a4.28,4.28,0,0,0,4.28-4.28v-1.4H63.47a4.07,4.07,0,0,1,3.86,4.24V33.38a1.44,1.44,0,1,0,2.88,0V17.07A6.94,6.94,0,0,0,63.47,10H51.73V8.54a4.28,4.28,0,0,0-4.28-4.28H41.6a5.7,5.7,0,0,0-11,0H24.72a4.28,4.28,0,0,0-4.28,4.28V10H8.7A6.94,6.94,0,0,0,2,17.07V81A7,7,0,0,0,8.7,88.14H42.78a1.44,1.44,0,1,0,0-2.88ZM23.31,8.54a1.41,1.41,0,0,1,1.41-1.4h7.1A1.43,1.43,0,0,0,33.26,5.7a2.83,2.83,0,0,1,5.65,0,1.43,1.43,0,0,0,1.44,1.44h7.1a1.41,1.41,0,0,1,1.41,1.4v5.69a1.41,1.41,0,0,1-1.41,1.4H24.72a1.41,1.41,0,0,1-1.41-1.4Z"/><path class="cls-1" d="M90,43.33c-7.24-9.76-14.65-6.21-21.17-3.07-.81.38-1.62.77-2.43,1.14-.81-.37-1.62-.76-2.42-1.14-6.53-3.14-13.93-6.7-21.18,3.07S43.17,66.24,45.68,70A2.13,2.13,0,0,1,46,71c1.85,16,4.79,24,8.76,24,3.55,0,9.3-4.84,9.65-17.82v-.06a3,3,0,0,1,1.74-2.81.43.43,0,0,1,.44,0,3,3,0,0,1,1.74,2.81h0v.07C68.7,90.16,74.45,95,78,95c4,0,6.91-8.08,8.76-24A2.13,2.13,0,0,1,87.1,70C89.61,66.24,97.24,53.1,90,43.33ZM84.7,68.45a5.08,5.08,0,0,0-.8,2.19C82.2,85.29,79.38,92.12,78,92.12c-1.7,0-6.47-3.56-6.77-15A5.94,5.94,0,0,0,68,71.78a3.31,3.31,0,0,0-3.2,0,5.91,5.91,0,0,0-3.24,5.32c-.3,11.46-5.07,15-6.77,15-1.38,0-4.21-6.83-5.9-21.48a5.08,5.08,0,0,0-.8-2.19c-1.6-2.42-9.27-14.93-3-23.4,2.88-3.88,5.6-5.23,8.41-5.23s5.85,1.42,9.17,3a13.67,13.67,0,0,1-3.91.64,1.44,1.44,0,0,0,0,2.87c4,0,7.71-1.78,11.29-3.5,6.58-3.16,11.79-5.66,17.62,2.19C94,53.52,86.3,66,84.7,68.45Z"/><path class="cls-1" d="M16.37,23.6a5,5,0,1,0,5,5A5,5,0,0,0,16.37,23.6Zm0,7.11a2.12,2.12,0,1,1,2.12-2.12A2.12,2.12,0,0,1,16.37,30.71Z"/><path class="cls-1" d="M16.37,37.81a5,5,0,1,0,5,5A5,5,0,0,0,16.37,37.81Zm0,7.11a2.12,2.12,0,1,1,2.12-2.12A2.12,2.12,0,0,1,16.37,44.92Z"/><path class="cls-1" d="M16.37,52a5,5,0,1,0,5,5A5,5,0,0,0,16.37,52Zm0,7.11A2.12,2.12,0,1,1,18.49,57,2.12,2.12,0,0,1,16.37,59.13Z"/><path class="cls-1" d="M16.37,66.24a5,5,0,1,0,5,5A5,5,0,0,0,16.37,66.24Zm0,7.1a2.11,2.11,0,1,1,2.12-2.11A2.12,2.12,0,0,1,16.37,73.34Z"/><path class="cls-1" d="M27.68,30h7a1.44,1.44,0,0,0,0-2.88h-7a1.44,1.44,0,0,0,0,2.88Z"/><path class="cls-1" d="M42,27.15A1.44,1.44,0,0,0,42,30h17.4a1.44,1.44,0,0,0,0-2.88Z"/><path class="cls-1" d="M36.79,41.37H27.68a1.44,1.44,0,0,0,0,2.88h9.11a1.44,1.44,0,0,0,0-2.88Z"/><path class="cls-1" d="M27.68,58.46h6.6a1.44,1.44,0,0,0,0-2.88h-6.6a1.44,1.44,0,0,0,0,2.88Z"/><path class="cls-1" d="M27.68,72.67H40a1.44,1.44,0,1,0,0-2.88H27.68a1.44,1.44,0,0,0,0,2.88Z"/></svg>