<svg id="Layer_1" data-name="Layer 1" xmlns="http://www.w3.org/2000/svg" viewBox="0 0 95 95"><defs><style>.cls-1{fill:#fff;}</style></defs><path class="cls-1" d="M84.38,9.28C73.27-4.84,62.34.12,51.76,4.91c-1.41.64-2.83,1.28-4.26,1.88-1.43-.6-2.85-1.24-4.26-1.88C32.66.12,21.73-4.84,10.61,9.28c-11.28,14.34.7,33.77,4.64,39.38a3.74,3.74,0,0,1,.64,1.7C17.52,63.6,21.39,85.82,29,85.82a1.44,1.44,0,1,0,0-2.88c-3.59,0-7.9-13.85-10.25-32.93a6.56,6.56,0,0,0-1.15-3c-2.6-3.7-15-22.84-4.72-35.95C22.59-1.29,31.61,2.8,42.05,7.53l1.62.73a25.77,25.77,0,0,1-8.3,1.57,1.44,1.44,0,1,0,0,2.88c4.37,0,8.56-1.34,12.63-3l.09,0C49.73,9,51.35,8.25,53,7.53,63.39,2.8,72.41-1.29,82.12,11.06,92.44,24.17,80,43.31,77.4,47a6.56,6.56,0,0,0-1.15,3C73.9,69.09,69.59,82.94,66,82.94a1.44,1.44,0,0,0,0,2.88c7.61,0,11.48-22.22,13.11-35.47a3.63,3.63,0,0,1,.64-1.69C83.69,43.05,95.67,23.63,84.38,9.28Z"/><path class="cls-1" d="M66.87,45.74V41.46a4.33,4.33,0,0,0-4.32-4.32H32.45a4.33,4.33,0,0,0-4.32,4.32v4.28a4.33,4.33,0,0,0,4.32,4.32h.87L38,86.63a9.59,9.59,0,0,0,19,0h0l4.66-36.57h.88A4.33,4.33,0,0,0,66.87,45.74ZM31,45.74V41.46A1.43,1.43,0,0,1,32.45,40h30.1A1.44,1.44,0,0,1,64,41.46v4.28a1.45,1.45,0,0,1-1.44,1.44H32.45A1.44,1.44,0,0,1,31,45.74ZM54.15,86.27h0a6.7,6.7,0,0,1-13.3,0L36.22,50.06H58.77Z"/><path class="cls-1" d="M39.23,59.68a1.44,1.44,0,0,0,1.37,1,1.47,1.47,0,0,0,.46-.07l14.16-4.77a1.44,1.44,0,0,0-.92-2.73L40.14,57.86A1.44,1.44,0,0,0,39.23,59.68Z"/><path class="cls-1" d="M52.92,60.76,41.65,64.55a1.44,1.44,0,0,0-.91,1.82,1.46,1.46,0,0,0,1.37,1,1.51,1.51,0,0,0,.46-.07l11.26-3.8a1.43,1.43,0,1,0-.91-2.72Z"/><path class="cls-1" d="M51.66,68.37l-9.11,3.07A1.44,1.44,0,0,0,43,74.25a1.54,1.54,0,0,0,.46-.08l9.11-3.07a1.44,1.44,0,0,0-.92-2.73Z"/><path class="cls-1" d="M50.69,75.9,44,78.14a1.44,1.44,0,0,0-.9,1.83,1.43,1.43,0,0,0,1.36,1,1.47,1.47,0,0,0,.46-.07l6.67-2.24a1.45,1.45,0,0,0,.9-1.83A1.43,1.43,0,0,0,50.69,75.9Z"/><path class="cls-1" d="M49.56,83.48l-4.18,1.4a1.44,1.44,0,0,0,.46,2.81,1.54,1.54,0,0,0,.46-.08l4.18-1.41a1.44,1.44,0,1,0-.92-2.72Z"/></svg>