<svg id="Layer_1" data-name="Layer 1" xmlns="http://www.w3.org/2000/svg" viewBox="0 0 95 95"><defs><style>.cls-1{fill:#fff;}</style></defs><path class="cls-1" d="M87.8,0H7.2A7.21,7.21,0,0,0,0,7.2V70.73a7.2,7.2,0,0,0,7.2,7.19H36.89v7.66h-2a8,8,0,0,0-8,8A1.43,1.43,0,0,0,28.31,95H66.69a1.43,1.43,0,0,0,1.44-1.44,8,8,0,0,0-8-8h-2V77.92H87.8A7.2,7.2,0,0,0,95,70.73V7.2A7.21,7.21,0,0,0,87.8,0ZM82.15,57.36a29.47,29.47,0,0,0,.92,6.9h-3.9a29,29,0,0,0,.92-6.91V57.3a2.23,2.23,0,0,1,1-2,2.21,2.21,0,0,1,1,2h0ZM85,57.27a5.06,5.06,0,0,0-2.51-4.48,2.71,2.71,0,0,0-2.8,0,5.08,5.08,0,0,0-2.51,4.48,25.09,25.09,0,0,1-1,7H70.8a95.46,95.46,0,0,1-2-12.17,4.45,4.45,0,0,0-.61-1.84,32.74,32.74,0,0,1-2.26-4.64c-.1-.24-.19-.48-.28-.73-1.36-3.75-2.3-8.78.17-12.8l.2-.36c3.85-5.72,7.16-4.3,11.61-2a7.87,7.87,0,0,1-2,.31,1.44,1.44,0,0,0,0,2.88c.3,0,.59,0,.87,0a15.9,15.9,0,0,0,5.29-1.65h0l0,0c.74-.36,1.48-.74,2.22-1.13q.57-.32,1.14-.6l.39-.2.73-.36.47-.21.63-.28.48-.17.59-.21.48-.12a5.78,5.78,0,0,1,.57-.12l.47-.06a5.33,5.33,0,0,1,.56,0,4.44,4.44,0,0,1,1,.11A3.15,3.15,0,0,1,92,28l.15.06V64.26H86.07A25.06,25.06,0,0,1,85,57.27Zm-36,.09a29.47,29.47,0,0,0,.92,6.9h-3.9A29,29,0,0,0,47,57.35V57.3a2.23,2.23,0,0,1,1-2,2.21,2.21,0,0,1,1,2h0Zm2.88-.09a5.06,5.06,0,0,0-2.51-4.48,2.71,2.71,0,0,0-2.8,0,5.08,5.08,0,0,0-2.51,4.49,25.07,25.07,0,0,1-1,7H37.69a97.32,97.32,0,0,1-2-12.17,4.59,4.59,0,0,0-.6-1.84,32.11,32.11,0,0,1-2-4.08c-1.72-4.12-3.14-10-.14-14.44l0-.05c.25-.36.49-.69.74-1,.08-.11.17-.2.25-.3l.46-.54.33-.31c.13-.13.26-.26.39-.37s.23-.18.35-.27.23-.19.35-.27.24-.14.36-.21a3,3,0,0,1,.35-.19,2.75,2.75,0,0,1,.36-.15,2.92,2.92,0,0,1,.34-.13l.37-.09.34-.08.37,0,.34,0H39l.35,0,.38,0,.35.07.38.1.36.11.4.13.36.14.41.16.37.17.42.19.39.19.43.21.41.21.45.23,0,0-.43.11-.39.08a7,7,0,0,1-1.2.12,1.44,1.44,0,1,0,0,2.88,12.64,12.64,0,0,0,4.81-1.09c.46-.19.89-.39,1.29-.59h.06c.76-.37,1.51-.76,2.26-1.16l.86-.45c.1-.06.2-.1.29-.16l.55-.28.34-.16.48-.23.33-.14.46-.21.31-.12.47-.17.3-.09.46-.14.3-.06.45-.08c.1,0,.2,0,.3,0l.43,0h.3c.14,0,.29,0,.43,0l.3.05.42.1L59,28l.41.16.31.16.4.23.33.23.4.3.33.3.39.38c.12.12.23.25.35.38l.39.46c.12.14.23.3.35.46s.15.21.23.32a.36.36,0,0,0,0,.09c-.07.13-.13.27-.19.4s-.18.39-.26.58-.1.29-.16.42-.13.39-.19.58-.09.29-.13.44-.1.38-.14.57-.07.3-.1.44-.07.39-.1.59l-.06.43c0,.2,0,.41-.06.61s0,.27,0,.41,0,.42,0,.64,0,.25,0,.38,0,.47,0,.71,0,.2,0,.3c0,.33,0,.67.08,1v0c0,.32.08.64.13,1,0,.1,0,.2,0,.3s.08.45.13.67,0,.24.07.36.09.4.14.59l.09.37c.05.19.1.38.16.57s.06.23.1.35.11.37.17.55a3.38,3.38,0,0,0,.11.34c.06.18.12.37.19.54s.07.21.1.3,0,.13.07.19A32.78,32.78,0,0,1,61,50.25a4.45,4.45,0,0,0-.61,1.84,95.46,95.46,0,0,1-2,12.17H53A25.06,25.06,0,0,1,51.92,57.27Zm-38.08,5.1.09-.57q.12-.77.21-1.56c0-.21,0-.42.07-.64.06-.73.11-1.47.13-2.25V57.3a2.21,2.21,0,0,1,1-2,2.23,2.23,0,0,1,1,2h0v.05c0,.78.07,1.53.13,2.26l.06.63c.06.53.13,1,.21,1.55,0,.2.06.4.1.59.12.65.25,1.28.41,1.88H13.42C13.58,63.66,13.72,63,13.84,62.37Zm6.5,1.89-.15-.46q-.09-.31-.18-.66c-.09-.35-.17-.72-.24-1.09s-.09-.47-.13-.71c-.07-.42-.12-.86-.17-1.31,0-.21-.06-.42-.07-.64-.06-.68-.11-1.38-.12-2.12a5.08,5.08,0,0,0-2.51-4.48,2.73,2.73,0,0,0-2.81,0,5.07,5.07,0,0,0-2.5,4.48c0,.74-.06,1.44-.12,2.12,0,.22-.05.43-.08.65,0,.45-.1.88-.17,1.3,0,.24-.08.48-.13.71-.07.38-.15.74-.24,1.09s-.12.45-.18.67-.1.3-.15.45H2.88V28.83l0,0a6.37,6.37,0,0,1,1-.59l.1,0a5,5,0,0,1,1-.32l.11,0a4.06,4.06,0,0,1,1-.09h.11a6.27,6.27,0,0,1,1,.12l.1,0a8.33,8.33,0,0,1,1.1.31l.08,0q.58.21,1.2.48l.06,0c.42.18.85.39,1.31.62h0c.26.12.53.27.79.4a7.65,7.65,0,0,1-2,.31,1.44,1.44,0,0,0,0,2.88,12.74,12.74,0,0,0,4.82-1.09c.47-.2.92-.41,1.33-.6h0c.76-.36,1.51-.76,2.26-1.16l.84-.44.38-.2.46-.23L20.3,29l.43-.21.37-.16.42-.19.35-.14.41-.15.34-.11L23,28l.34-.08.4-.07.33,0c.13,0,.26,0,.4,0s.21,0,.32,0l.39,0,.33.05a2.33,2.33,0,0,1,.38.08l.33.1a2.92,2.92,0,0,1,.38.14,1.87,1.87,0,0,1,.32.15,3.72,3.72,0,0,1,.39.21c.11.07.22.13.33.21s.25.18.38.29a3.92,3.92,0,0,1,.33.27q.2.16.39.36l.33.34q.2.21.39.45c.11.13.23.27.34.42L30,31l-.06.12-.21.41c-.1.2-.2.41-.29.62s-.12.29-.18.44-.16.4-.23.61-.09.3-.14.46-.12.4-.17.61-.07.31-.1.46-.08.41-.12.62-.05.31-.07.46l-.06.64c0,.15,0,.3,0,.45s0,.44,0,.66,0,.28,0,.42,0,.49,0,.74,0,.23,0,.34c0,.36.06.71.1,1.06a.43.43,0,0,0,0,.11c0,.32.08.64.13,1,0,.12.05.24.07.36s.09.45.14.68l.09.42.15.6.12.43c.05.19.1.38.16.57s.09.28.13.42l.18.54.14.42c.06.17.13.34.19.52l.15.39.07.18a31,31,0,0,1-1.82,3.54,4.59,4.59,0,0,0-.6,1.84,97.32,97.32,0,0,1-2,12.17ZM30.57,52.39a1.71,1.71,0,0,1,.21-.66c.22-.37.54-.93.91-1.63.36.7.69,1.26.91,1.63a1.71,1.71,0,0,1,.21.66,101.33,101.33,0,0,0,1.91,11.87H28.65A101.82,101.82,0,0,0,30.57,52.39Zm32.65,0a1.51,1.51,0,0,1,.21-.66c.22-.38.65-1.11,1.14-2.08.49,1,.91,1.7,1.14,2.08a1.71,1.71,0,0,1,.21.66,103.49,103.49,0,0,0,1.91,11.87H61.3A106.41,106.41,0,0,0,63.22,52.39ZM2.88,7.2A4.32,4.32,0,0,1,7.2,2.88H87.8A4.32,4.32,0,0,1,92.12,7.2V25h-.07a7.56,7.56,0,0,0-1-.14h-.27a7.38,7.38,0,0,0-1,0l-.16,0a7.85,7.85,0,0,0-1,.16l-.23.05c-.34.08-.67.17-1,.28l-.26.09c-.34.12-.67.24-1,.38l-.12.05c-.32.13-.62.27-.93.42l-.24.11-.93.47-.37.19-.52.27-.31.16-.15.08-1.38.71-1.54-.79-.87-.46L78.56,27l-.74-.37-.24-.12-.67-.32-.3-.13L76,25.79l-.34-.12L75,25.44l-.35-.11-.62-.17-.36-.08L73.08,25l-.38,0a6,6,0,0,0-.61-.06h-.38l-.62,0-.39,0-.62.11-.39.09a6.45,6.45,0,0,0-.62.21,2.74,2.74,0,0,0-.4.15c-.21.09-.42.2-.63.31l-.38.21a6.62,6.62,0,0,0-.64.44l-.38.27c-.22.18-.44.38-.65.58l-.37.34c-.22.23-.45.49-.67.75s-.23.24-.34.38l0,0,0,0-.26-.28q-.36-.43-.72-.81l-.35-.34c-.21-.19-.42-.38-.63-.55l-.38-.29c-.2-.15-.41-.29-.61-.42l-.38-.22c-.21-.12-.42-.22-.63-.32s-.23-.11-.35-.15a6.23,6.23,0,0,0-.73-.24l-.24-.08c-.32-.07-.65-.13-1-.17h-.16c-.23,0-.46,0-.69,0h-.11l-.51,0a4.57,4.57,0,0,0-.52.05,4.17,4.17,0,0,0-.49.08l-.53.1-.46.12-.55.16c-.14,0-.27.1-.41.15l-.58.2-.33.14-.64.28-.16.07c-.89.41-1.76.87-2.59,1.31-.51.27-1,.54-1.54.8-.52-.26-1-.53-1.54-.8l-.85-.45-.29-.15-.59-.3-.36-.17-.54-.26L43.43,26l-.51-.22-.43-.16L42,25.46l-.45-.14-.5-.14-.46-.11-.51-.1-.47-.06-.52-.05h-.46l-.53,0-.46,0-.54.1a3.41,3.41,0,0,0-.46.1,5.22,5.22,0,0,0-.56.18,3.89,3.89,0,0,0-.44.16c-.2.08-.41.19-.62.3s-.25.12-.38.2a9.66,9.66,0,0,0-.81.55l-.19.13a11.43,11.43,0,0,0-1,.89l-.24.26c-.23.24-.46.48-.69.75-.21-.24-.41-.44-.61-.66l-.31-.33a10.41,10.41,0,0,0-2-1.58l-.27-.14c-.24-.13-.49-.26-.73-.37l-.37-.13c-.21-.08-.43-.15-.64-.21L26.33,25c-.19,0-.39-.09-.58-.11l-.44,0-.56,0-.44,0a4.93,4.93,0,0,0-.54.05,3.47,3.47,0,0,0-.45.06l-.52.1-.45.1-.52.15-.43.14c-.18.05-.35.12-.52.18l-.42.16-.54.23-.38.17-.62.29-.26.13c-.6.3-1.19.6-1.75.9l-.3.16-1.24.64c-.51-.26-1-.51-1.52-.78l-.71-.37L13,27.1l-.59-.3-.21-.1-.54-.27-.23-.11-.58-.26L10.67,26l-.78-.32h0l-.74-.25-.23-.07-.54-.16-.27-.06L7.57,25,7.3,25l-.58-.07-.22,0c-.26,0-.52,0-.79,0H5.59c-.22,0-.45,0-.67.06l-.26,0-.55.12-.28.07-.55.19-.26.1-.14.06ZM65.05,92.12H30a5.12,5.12,0,0,1,4.9-3.66h25.3A5.12,5.12,0,0,1,65.05,92.12Zm-9.81-6.54H39.76V77.92H55.24ZM92.12,70.73a4.33,4.33,0,0,1-4.32,4.32H7.2a4.33,4.33,0,0,1-4.32-4.32v-3.6H92.12Z"/><path class="cls-1" d="M10.46,11.87H21.33a1.44,1.44,0,1,0,0-2.87H10.46a1.44,1.44,0,1,0,0,2.87Z"/><path class="cls-1" d="M10.46,20.39H30.24a1.44,1.44,0,1,0,0-2.88H10.46a1.44,1.44,0,0,0,0,2.88Z"/><path class="cls-1" d="M37.25,19a1.43,1.43,0,0,0,1.43,1.44H54a1.44,1.44,0,0,0,0-2.88H38.68A1.43,1.43,0,0,0,37.25,19Z"/><path class="cls-1" d="M29.77,11.87H48.06a1.44,1.44,0,1,0,0-2.87H29.77a1.44,1.44,0,1,0,0,2.87Z"/></svg>