<svg id="Layer_1" data-name="Layer 1" xmlns="http://www.w3.org/2000/svg" viewBox="0 0 95 95"><defs><style>.cls-1{fill:#fff;}</style></defs><path class="cls-1" d="M88.51,42.85c-6-8.11-12.14-7.1-17.79-4.73V21.51s0-.06,0-.09a1.53,1.53,0,0,0-.08-.37.78.78,0,0,0-.05-.14,1.4,1.4,0,0,0-.28-.42L58.94,9.14a1.47,1.47,0,0,0-.42-.28l-.14,0A1.53,1.53,0,0,0,58,8.74l-.1,0H13.57a1.43,1.43,0,0,0-1.44,1.44v63H6.29V2.88H59.11V4.82a1.44,1.44,0,1,0,2.88,0V1.44A1.43,1.43,0,0,0,60.55,0H4.85A1.43,1.43,0,0,0,3.41,1.44V74.58A1.43,1.43,0,0,0,4.85,76h7.28V83.3a1.43,1.43,0,0,0,1.44,1.44h33C48.23,91.55,50.39,95,53,95c3.57,0,9.38-4.88,9.73-18V77a3.09,3.09,0,0,1,1.76-2.86.47.47,0,0,1,.46,0A3.08,3.08,0,0,1,66.69,77h0V77c.35,13.09,6.16,18,9.73,18,4,0,7-8.16,8.83-24.25a2.13,2.13,0,0,1,.34-.94C88.13,66,95.83,52.72,88.51,42.85ZM65.8,20.07H59.36V13.63ZM15,81.86V11.6H56.48v9.91A1.45,1.45,0,0,0,57.92,23h9.92V39.43l-.69.33L64.7,40.92l-2.46-1.16c-6.58-3.17-14.05-6.75-21.36,3.1s.39,23.12,2.92,27a2,2,0,0,1,.34,1q.75,6.39,1.72,11.1ZM83.19,68.22a5,5,0,0,0-.79,2.2c-1.72,14.8-4.59,21.7-6,21.7-1.72,0-6.54-3.6-6.85-15.18a6,6,0,0,0-3.26-5.36,3.4,3.4,0,0,0-3.22,0,6,6,0,0,0-3.26,5.36C59.52,88.52,54.7,92.12,53,92.12c-1.4,0-4.26-6.9-6-21.7a5.16,5.16,0,0,0-.79-2.2c-1.62-2.45-9.38-15.08-3-23.65,2.9-3.91,5.65-5.28,8.49-5.28s5.93,1.44,9.3,3.06A13.54,13.54,0,0,1,57,43a1.44,1.44,0,0,0,0,2.88,20.55,20.55,0,0,0,8.23-2.07.15.15,0,0,0,.07,0c1-.45,2.07-.95,3.09-1.44,6.65-3.19,11.91-5.72,17.8,2.22C92.57,53.14,84.81,65.77,83.19,68.22Z"/><path class="cls-1" d="M22.84,20.83H46.41a1.44,1.44,0,1,0,0-2.88H22.84a1.44,1.44,0,0,0,0,2.88Z"/><path class="cls-1" d="M22.84,30.91h38a1.44,1.44,0,1,0,0-2.88h-38a1.44,1.44,0,1,0,0,2.88Z"/><path class="cls-1" d="M22.84,41H37a1.44,1.44,0,1,0,0-2.87H22.84a1.44,1.44,0,1,0,0,2.87Z"/><path class="cls-1" d="M22.84,51.06h9.89a1.44,1.44,0,1,0,0-2.88H22.84a1.44,1.44,0,1,0,0,2.88Z"/><path class="cls-1" d="M22.84,61.14H33.45a1.44,1.44,0,0,0,0-2.88H22.84a1.44,1.44,0,1,0,0,2.88Z"/><path class="cls-1" d="M37.77,68.34H22.84a1.44,1.44,0,0,0,0,2.88H37.77a1.44,1.44,0,1,0,0-2.88Z"/></svg>